<svg width="45" height="44" viewBox="0 0 45 44" fill="none" xmlns="http://www.w3.org/2000/svg">
<rect x="0.5" width="44" height="44" rx="22" fill="#0B3B2D"/>
<path d="M27.3103 16.0601L14.5542 28.8476L13.7812 30.7188L15.6525 29.9459L28.44 17.1898L27.3103 16.0601ZM29.8627 13.5082L29.31 14.0604L30.4397 15.1901L30.9923 14.6374C31.1374 14.4923 31.2188 14.2955 31.2188 14.0904C31.2188 13.8852 31.1374 13.6885 30.9923 13.5434L30.9572 13.5082C30.8853 13.4363 30.8 13.3793 30.7061 13.3404C30.6122 13.3015 30.5116 13.2815 30.4099 13.2815C30.3083 13.2815 30.2076 13.3015 30.1137 13.3404C30.0198 13.3793 29.9345 13.4363 29.8627 13.5082Z" stroke="white" stroke-width="2.0625" stroke-linecap="round" stroke-linejoin="round"/>
</svg>
