<svg xmlns="http://www.w3.org/2000/svg" width="56" height="56" viewBox="0 0 56 56" fill="none">
  <path d="M43.0936 52.5007C42.7252 52.5021 42.3658 52.3873 42.0665 52.1726L27.9998 41.9744L13.9331 52.1726C13.6326 52.3905 13.2705 52.5073 12.8992 52.5059C12.528 52.5046 12.1668 52.3852 11.8679 52.165C11.5689 51.9449 11.3477 51.6354 11.2363 51.2812C11.1249 50.9271 11.1289 50.5467 11.2479 50.1951L16.7342 33.9452L2.51542 24.1944C2.20743 23.9835 1.97498 23.6795 1.85203 23.327C1.72908 22.9746 1.72207 22.592 1.83203 22.2352C1.94199 21.8785 2.16315 21.5662 2.46321 21.3441C2.76326 21.122 3.12648 21.0017 3.4998 21.0007H21.0414L26.3351 4.70929C26.4492 4.35756 26.6717 4.05099 26.9707 3.83357C27.2698 3.61614 27.6301 3.49902 27.9998 3.49902C28.3696 3.49902 28.7298 3.61614 29.0289 3.83357C29.3279 4.05099 29.5505 4.35756 29.6645 4.70929L34.9582 21.0062H52.4998C52.8736 21.006 53.2376 21.1255 53.5386 21.3472C53.8395 21.5688 54.0616 21.8811 54.1722 22.2381C54.2829 22.5951 54.2763 22.9782 54.1535 23.3312C54.0307 23.6842 53.798 23.9887 53.4896 24.1999L39.2654 33.9452L44.7484 50.1907C44.8372 50.4537 44.8622 50.7341 44.8213 51.0087C44.7804 51.2832 44.6747 51.5441 44.513 51.7698C44.3514 51.9955 44.1383 52.1795 43.8915 52.3066C43.6447 52.4336 43.3712 52.5002 43.0936 52.5007Z" fill="#FFC23D"/>
</svg>