<?xml version="1.0" encoding="UTF-8"?>
<!DOCTYPE svg PUBLIC "-//W3C//DTD SVG 1.1//EN" "http://www.w3.org/Graphics/SVG/1.1/DTD/svg11.dtd">
<svg xmlns="http://www.w3.org/2000/svg" version="1.1" width="currentWidth" height="currentHeight" style="shape-rendering:geometricPrecision; text-rendering:geometricPrecision; image-rendering:optimizeQuality; fill-rule:evenodd; clip-rule:evenodd" xmlns:xlink="http://www.w3.org/1999/xlink">
<g><path style="opacity:0.743" fill="#000000" d="M 63.5,29.5 C 63.5,30.8333 63.5,32.1667 63.5,33.5C 59.8534,36.8113 56.1867,40.1446 52.5,43.5C 48.1667,39.8333 44.1667,35.8333 40.5,31.5C 41.3482,29.7172 42.6815,29.2172 44.5,30C 46.3333,31.8333 48.1667,33.6667 50,35.5C 49.7423,20.0723 41.909,11.4056 26.5,9.5C 9.88809,12.0446 2.38809,21.7113 4,38.5C 7.9351,50.221 16.1018,56.221 28.5,56.5C 28.5,57.8333 28.5,59.1667 28.5,60.5C 13.8947,60.8819 4.22805,54.2153 -0.5,40.5C -0.5,35.5 -0.5,30.5 -0.5,25.5C 8.5465,6.20335 22.8798,1.03668 42.5,10C 50.7994,16.4326 54.966,24.9326 55,35.5C 57.2072,32.436 60.0406,30.436 63.5,29.5 Z"/></g>
</svg>
