<svg xmlns="http://www.w3.org/2000/svg" width="56" height="56" viewBox="0 0 56 56" fill="none">
  <path d="M43.0918 51.5007L43.0896 51.5007C42.9325 51.5013 42.7792 51.4526 42.6513 51.3614C42.6507 51.3609 42.6501 51.3605 42.6495 51.3601L28.5868 41.1648L27.9998 40.7393L27.4128 41.1648L13.3461 51.3629L13.346 51.3631C13.2172 51.4565 13.062 51.5065 12.9029 51.5059C12.7438 51.5054 12.589 51.4542 12.4609 51.3598C12.3327 51.2655 12.238 51.1328 12.1902 50.9811C12.1424 50.8293 12.1442 50.6663 12.1952 50.5156L12.1954 50.5149L17.6816 34.2651L17.9236 33.5483L17.2997 33.1205L3.08098 23.3697L3.08055 23.3694C2.94856 23.279 2.84893 23.1488 2.79624 22.9977C2.74354 22.8466 2.74054 22.6827 2.78767 22.5298C2.83479 22.3769 2.92958 22.2431 3.05817 22.1479C3.18646 22.0529 3.3417 22.0013 3.5013 22.0007H21.0414H21.7679L21.9924 21.3097L27.2862 5.01832L27.2864 5.01771C27.3352 4.86697 27.4306 4.73558 27.5588 4.6424C27.6869 4.54921 27.8413 4.49902 27.9998 4.49902C28.1583 4.49902 28.3127 4.54922 28.4408 4.6424C28.569 4.73558 28.6644 4.86697 28.7132 5.01771L28.7134 5.01823L34.0072 21.3151L34.2316 22.0062H34.9582H52.4998H52.5003C52.6605 22.0061 52.8165 22.0573 52.9455 22.1523C53.0745 22.2473 53.1696 22.3811 53.217 22.5341L54.1722 22.2381L53.217 22.5341C53.2645 22.6871 53.2617 22.8513 53.209 23.0026C53.1564 23.1539 53.0567 23.2844 52.9245 23.3749L52.9244 23.3749L38.7002 33.1203L38.0759 33.548L38.3179 34.265L43.8009 50.5105L43.801 50.5107C43.8391 50.6234 43.8498 50.7436 43.8322 50.8612C43.8147 50.9789 43.7694 51.0907 43.7001 51.1875C43.6308 51.2842 43.5395 51.363 43.4337 51.4175C43.328 51.472 43.2107 51.5005 43.0918 51.5007Z" stroke="#112211" stroke-width="2"/>
</svg>
